<svg xmlns="http://www.w3.org/2000/svg" viewBox="0 0 1200 630" role="img" aria-label="AYP Insights Dashboard Preview">
  <defs>
    <linearGradient id="bg" x1="0%" y1="0%" x2="100%" y2="100%">
      <stop offset="0%" style="stop-color:#0f172a"/>
      <stop offset="100%" style="stop-color:#1e1b4b"/>
    </linearGradient>
    <linearGradient id="accent" x1="0%" y1="0%" x2="100%" y2="0%">
      <stop offset="0%" style="stop-color:#0ea5e9"/>
      <stop offset="100%" style="stop-color:#8b5cf6"/>
    </linearGradient>
  </defs>
  <rect width="1200" height="630" fill="url(#bg)"/>
  <text x="60" y="80" fill="#f8fafc" font-family="system-ui,sans-serif" font-size="36" font-weight="700">AYP Executive Insights</text>
  <text x="60" y="115" fill="#94a3b8" font-family="system-ui,sans-serif" font-size="18">CEO Financial Cockpit Preview</text>
  <rect x="60" y="150" width="260" height="120" rx="16" fill="rgba(255,255,255,0.06)" stroke="rgba(14,165,233,0.3)"/>
  <rect x="340" y="150" width="260" height="120" rx="16" fill="rgba(255,255,255,0.06)" stroke="rgba(139,92,246,0.3)"/>
  <rect x="620" y="150" width="260" height="120" rx="16" fill="rgba(255,255,255,0.06)" stroke="rgba(16,185,129,0.3)"/>
  <rect x="900" y="150" width="240" height="120" rx="16" fill="rgba(255,255,255,0.06)" stroke="rgba(245,158,11,0.3)"/>
  <text x="80" y="200" fill="#94a3b8" font-size="14" font-family="system-ui">Cash Position</text>
  <text x="80" y="240" fill="#f8fafc" font-size="28" font-weight="700" font-family="system-ui">PKR 42.5M</text>
  <rect x="60" y="300" width="520" height="280" rx="16" fill="rgba(255,255,255,0.04)" stroke="rgba(255,255,255,0.1)"/>
  <rect x="620" y="300" width="520" height="280" rx="16" fill="rgba(255,255,255,0.04)" stroke="rgba(255,255,255,0.1)"/>
  <path d="M100 500 Q200 420 300 460 T500 400 T700 450" fill="none" stroke="url(#accent)" stroke-width="4"/>
  <text x="600" y="560" text-anchor="middle" fill="#64748b" font-family="system-ui" font-size="14">Placeholder  run npm run build for live UI</text>
</svg>
